<?xml version="1.0" encoding="utf-8"?>
<!-- Generator: Adobe Illustrator 27.7.0, SVG Export Plug-In . SVG Version: 6.00 Build 0)  -->
<svg version="1.1" xmlns="http://www.w3.org/2000/svg" xmlns:xlink="http://www.w3.org/1999/xlink" x="0px" y="0px"
	 viewBox="0 0 40 40" style="enable-background:new 0 0 40 40;" xml:space="preserve">
<style type="text/css">
	.st0{fill:#FFFFFF;}
	.st1{fill:#0057BE;}
	.st2{fill:none;stroke:#0057BE;stroke-width:0.7685;stroke-miterlimit:10;}
	.st3{fill:#0057BE;stroke:#0057BE;stroke-width:0.3872;stroke-miterlimit:10;}
	.st4{fill:none;}
	.st5{fill-rule:evenodd;clip-rule:evenodd;fill:#0057BE;}
</style>
<g id="fehér_kör">
	<circle class="st0" cx="20.3" cy="20.1" r="20"/>
	<circle class="st0" cx="20.3" cy="20.1" r="20"/>
</g>
<g id="Réteg_2">
	<path class="st4" d="M4.3,4.1h32v32h-32V4.1z"/>
	<g>
		<path class="st1" d="M32,29.5v-5H8.7v5H32z M29.1,26.2c1.2,0,1.2,1.9,0,1.9C27.8,28.1,27.8,26.2,29.1,26.2z M26.9,26.2
			c1.2,0,1.2,1.9,0,1.9C25.6,28.1,25.6,26.2,26.9,26.2z M13.9,26.2c1.2,0,1.2,1.9,0,1.9C12.7,28.1,12.7,26.2,13.9,26.2z M11.7,26.2
			c1.2,0,1.2,1.9,0,1.9C10.5,28.1,10.5,26.2,11.7,26.2z"/>
		<path class="st1" d="M8.7,29.8v2.5c0,1.2,1,2.2,2.2,2.2h18.9c1.2,0,2.2-1,2.2-2.2v-2.5H8.7z"/>
		<path class="st1" d="M29.8,7.8c0,0-6.6-0.9-9.5-0.9c-2.9,0-9.4,0.9-9.4,0.9C9.7,8,8.7,9.1,8.7,10.3v13.8H32V10.3
			C32,9.1,31,8,29.8,7.8z M16.9,10.8c0-0.2,0.2-0.4,0.4-0.4h6.1c0.2,0,0.4,0.2,0.4,0.4v0.4c0,0.2-0.2,0.4-0.4,0.4h-6.1
			c-0.2,0-0.4-0.2-0.4-0.4V10.8z M14.2,22.9h-2.5c-0.8,0-1.4-0.6-1.4-1.4v-7.2c0-0.8,0.6-1.4,1.4-1.4h2.5V22.9z M26.3,22.9H14.5v-10
			h11.8V22.9z M30.5,21.4c0,0.8-0.6,1.4-1.4,1.4h-2.5v-10H29c0.8,0,1.4,0.6,1.4,1.4V21.4z"/>
		<path class="st1" d="M23.5,1.4c0,0,0.1,0,0.1,0.1l1.3,2c0,0,0,0,0,0.1l-1.3,2c0,0-0.1,0.1-0.1,0.1l-6.3,0c0,0-0.1,0-0.1-0.1
			l-1.3-2c0,0,0,0,0-0.1l1.3-2c0,0,0.1-0.1,0.1-0.1H23.5 M23.5,1h-6.3c-0.1,0-0.3,0.1-0.4,0.2l-1.3,2.1c-0.1,0.1-0.1,0.3,0,0.4
			l1.3,2.1C16.9,5.9,17.1,6,17.2,6h6.3c0.1,0,0.3-0.1,0.4-0.2l1.3-2.1c0.1-0.1,0.1-0.3,0-0.4l-1.3-2.1C23.8,1.1,23.7,1,23.5,1
			L23.5,1z"/>
		<g>
			<polygon class="st1" points="17.3,35.8 16,35.8 12.6,38.7 15.3,38.7 			"/>
			<polygon class="st1" points="23.5,35.8 24.8,35.8 28.1,38.7 25.5,38.7 			"/>
		</g>
		<path class="st1" d="M8.2,12.9H7.5c-0.4,0-0.7,0.3-0.7,0.7v2.8c0,0.4,0.3,0.7,0.7,0.7h0.7V12.9z"/>
		<path class="st1" d="M33.2,12.9h-0.7V17h0.7c0.4,0,0.7-0.3,0.7-0.7v-2.8C33.9,13.2,33.6,12.9,33.2,12.9z"/>
	</g>
</g>
</svg>
