<?xml version="1.0" encoding="utf-8"?>
<!-- Generator: Adobe Illustrator 27.7.0, SVG Export Plug-In . SVG Version: 6.00 Build 0)  -->
<svg version="1.1" xmlns="http://www.w3.org/2000/svg" xmlns:xlink="http://www.w3.org/1999/xlink" x="0px" y="0px"
	 viewBox="0 0 40 40" style="enable-background:new 0 0 40 40;" xml:space="preserve">
<style type="text/css">
	.st0{fill:#FFFFFF;}
	.st1{fill:#0057BE;}
	.st2{fill:none;stroke:#0057BE;stroke-width:0.7685;stroke-miterlimit:10;}
	.st3{fill:#0057BE;stroke:#0057BE;stroke-width:0.5;stroke-miterlimit:10;}
	.st4{fill:none;}
	.st5{fill-rule:evenodd;clip-rule:evenodd;fill:#0057BE;}
	.st6{fill:#0057BE;stroke:#0057BE;stroke-width:0.3;stroke-miterlimit:10;}
</style>
<g id="fehér_kör">
	<circle class="st0" cx="20" cy="20.1" r="20"/>
	<circle class="st0" cx="20" cy="20.1" r="20"/>
</g>
<g id="Réteg_2">
	<path class="st4" d="M4,4.1h32v32H4V4.1z"/>
	<g>
		<path class="st6" d="M11.1,27.9c-1.1-0.1-1.7-0.5-1.9-1.4c0-0.2,0-0.3,0-0.5c0-5.5,0-11.1,0-16.6c0-0.6,0.2-1,0.6-1.4
			c0.3-0.3,0.5-0.5,0.8-0.8c0.4-0.4,0.8-0.6,1.4-0.6c0-0.5,0-1,0-1.5c0-0.3,0.1-0.5,0.3-0.7c0.3-0.3,0.6-0.6,0.9-0.9
			c0.2-0.1,0.4-0.3,0.6-0.3c4,0,8,0,12,0c0.2,0,0.4,0.1,0.6,0.2c0.4,0.3,0.7,0.7,1,1c0.3,0.3,0.3,0.6,0,0.8
			c-0.2,0.2-0.5,0.2-0.8-0.1c0,0,0,0,0,0c-0.5-0.7-1.2-0.9-2.1-0.9c-3.4,0.1-6.8,0-10.3,0c-0.5,0-1.1,0.6-1.1,1.1c0,0.3,0,0.7,0,1.1
			c0.1,0,0.3,0,0.4,0c4.7,0,9.3,0,14,0c0.6,0,1.1,0.2,1.6,0.6c0.3,0.3,0.6,0.6,0.8,0.8c0.3,0.3,0.5,0.8,0.5,1.3c0,3,0,5.9,0,8.9
			c0,0.4-0.2,0.7-0.6,0.7c-0.3,0-0.5-0.3-0.5-0.7c0-2.9,0-5.8,0-8.7c0-0.3-0.1-0.5-0.3-0.8c-0.6-0.8-1.4-1.1-2.5-1.1
			c-4.8,0.1-9.6,0-14.3,0c-0.3,0-0.6,0.1-0.8,0.3c-0.8,0.6-1,1.4-1,2.4c0.1,5.1,0,10.3,0,15.4c0,0.7,0.2,0.8,0.8,0.8
			c0.8,0,1.6,0,2.4,0c0.4,0,0.7,0.2,0.7,0.6c0,0.3-0.3,0.6-0.7,0.5c-0.6-0.1-1,0.2-1.4,0.6c-2.6,2.7-5.3,5.3-7.9,7.9
			c0,0-0.1,0.1-0.1,0.1c-0.3,0.3-0.7,0.4-0.9,0.1c-0.3-0.3-0.2-0.6,0.1-0.9c2.5-2.5,5-5,7.5-7.5C10.9,28.2,11,28.1,11.1,27.9z"/>
		<path class="st6" d="M28.4,27.9c0.1,0.1,0.2,0.2,0.3,0.3c2.5,2.5,4.9,4.9,7.4,7.4c0.1,0.1,0.1,0.1,0.2,0.2
			c0.3,0.3,0.3,0.6,0.1,0.9c-0.3,0.2-0.6,0.2-0.9-0.1c-2.8-2.8-5.6-5.6-8.4-8.4c-0.2-0.2-0.4-0.3-0.6-0.3c-3.4,0-6.9,0-10.3,0
			c-0.1,0-0.3,0-0.4,0c-0.3-0.1-0.5-0.2-0.5-0.5c0-0.3,0.2-0.5,0.5-0.6c0.1,0,0.3,0,0.4,0c4.1,0,8.2,0,12.3,0c0.7,0,0.8-0.2,0.8-0.8
			c0-1.6,0-3.1,0-4.8c-0.2,0-0.3,0-0.4,0c-5.5,0-11,0-16.4,0c-0.1,0-0.2,0-0.2,0c-0.5,0-0.8-0.2-0.8-0.6c0-0.4,0.3-0.6,0.8-0.6
			c5.8,0,11.6,0,17.5,0c0.6,0,0.8,0.2,0.8,0.8c0,1.7,0,3.4,0,5.1C30.4,27.3,29.8,27.9,28.4,27.9z"/>
		<path class="st6" d="M19.2,11.2c-2.1,0-4.1,0-6.1,0c0,1.9,0,3.7,0,5.6c0.1,0,0.2,0,0.4,0c1.3,0,2.5,0,3.8,0c0.1,0,0.2,0,0.3,0
			c0.3,0,0.6,0.3,0.6,0.6c0,0.3-0.2,0.6-0.6,0.6c-1.5,0-3,0-4.5,0c-0.6,0-1-0.5-1-1.1c0-1.9,0-3.8,0-5.7c0-0.6,0.5-1.1,1.1-1.1
			c2.2,0,4.4,0,6.7,0c0.4,0,0.6,0.2,0.6,0.7c0,1.9,0,3.7,0,5.6c0,0.1,0,0.3,0,0.4c2,0,4.1,0,6.1,0c0-1.8,0-3.7,0-5.6
			c-0.1,0-0.3,0-0.4,0c-1.3,0-2.6,0-3.9,0c-0.5,0-0.7-0.2-0.7-0.6c0-0.3,0.3-0.5,0.7-0.5c1.4,0,2.8,0,4.2,0c0.7,0,1.2,0.5,1.2,1.2
			c0,1.8,0,3.6,0,5.4c0,0.7-0.5,1.2-1.2,1.2c-2.2,0-4.3,0-6.5,0c-0.5,0-0.7-0.2-0.7-0.7c0-1.9,0-3.7,0-5.6
			C19.2,11.4,19.2,11.3,19.2,11.2z"/>
		<path class="st6" d="M19.8,33.5c3.4,0,6.9,0,10.3,0c0.1,0,0.2,0,0.3,0c0.3,0.1,0.5,0.2,0.5,0.5c0,0.3-0.2,0.5-0.5,0.6
			c-0.1,0-0.2,0-0.3,0c-6.9,0-13.8,0-20.7,0c-0.1,0-0.2,0-0.3,0c-0.3-0.1-0.5-0.2-0.5-0.6c0-0.3,0.2-0.5,0.5-0.5c0.1,0,0.2,0,0.3,0
			C12.9,33.5,16.3,33.5,19.8,33.5z"/>
		<path class="st6" d="M22.6,31.3c-1.4,0-2.8,0-4.3,0c-0.1,0-0.2,0-0.3,0c-0.3,0-0.5-0.3-0.5-0.6c0-0.3,0.2-0.5,0.5-0.5
			c0.3,0,0.7,0,1,0c2.6,0,5.1,0,7.7,0c0.1,0,0.2,0,0.3,0c0.3,0.1,0.5,0.2,0.5,0.6c0,0.3-0.2,0.5-0.5,0.5c-0.1,0-0.2,0-0.3,0
			C25.4,31.3,24,31.3,22.6,31.3z"/>
		<path class="st6" d="M14.8,25.7c-1,0-1.7-0.7-1.8-1.6c0-0.9,0.6-1.7,1.5-1.7c0.4,0,0.7,0.2,0.7,0.5c0,0.3-0.2,0.6-0.6,0.6
			c-0.3,0-0.5,0.2-0.5,0.5c0,0.3,0.1,0.5,0.3,0.6c0.3,0.1,0.5,0,0.7-0.2c0.3-0.3,0.6-0.4,0.8-0.2c0.3,0.2,0.3,0.5,0,0.8
			C15.8,25.4,15.3,25.7,14.8,25.7z"/>
		<path class="st6" d="M24.9,25.7c-1,0-1.7-0.7-1.8-1.6c0-0.9,0.6-1.7,1.5-1.7c0.4,0,0.7,0.2,0.7,0.5c0,0.3-0.2,0.6-0.6,0.6
			c-0.3,0-0.5,0.2-0.5,0.5c0,0.2,0.2,0.4,0.3,0.6c0.3,0.2,0.5,0,0.7-0.2c0.3-0.3,0.6-0.4,0.8-0.2c0.3,0.2,0.3,0.5,0,0.9
			C25.8,25.5,25.3,25.7,24.9,25.7z"/>
		<path class="st6" d="M14.2,30.2c0.5,0,1,0,1.6,0c0.4,0,0.7,0.2,0.7,0.6c0,0.3-0.3,0.6-0.7,0.6c-1,0-2.1,0-3.1,0
			c-0.4,0-0.7-0.2-0.7-0.6c0-0.3,0.2-0.6,0.7-0.6C13.1,30.2,13.7,30.2,14.2,30.2z"/>
	</g>
</g>
</svg>
