<?xml version="1.0" encoding="utf-8"?>
<!-- Generator: Adobe Illustrator 27.7.0, SVG Export Plug-In . SVG Version: 6.00 Build 0)  -->
<svg version="1.1" xmlns="http://www.w3.org/2000/svg" xmlns:xlink="http://www.w3.org/1999/xlink" x="0px" y="0px"
	 viewBox="0 0 40 40" style="enable-background:new 0 0 40 40;" xml:space="preserve">
<style type="text/css">
	.st0{fill:#FFFFFF;}
	.st1{fill:#0057BE;}
	.st2{fill:none;stroke:#0057BE;stroke-width:0.7685;stroke-miterlimit:10;}
	.st3{fill:#0057BE;stroke:#0057BE;stroke-width:0.3872;stroke-miterlimit:10;}
	.st4{fill:none;}
	.st5{fill-rule:evenodd;clip-rule:evenodd;fill:#0057BE;}
</style>
<g id="fehér_kör">
	<circle class="st0" cx="20.1" cy="20.4" r="20"/>
	<circle class="st0" cx="20.1" cy="20.4" r="20"/>
</g>
<g id="Réteg_2">
	<path class="st4" d="M4.1,4.4h32v32h-32V4.4z"/>
	<path class="st5" d="M20.5,6.7c-5.9,0-10.4,0.7-11,0.8c-0.6,0.1-1,0.4-1,0.9L8.4,10C7.7,9.6,6.8,8.5,5.9,9.5
		c-0.9,0.9-1.2,1.8-1.1,3.1c0.1,1.3-0.1,2.5,0.9,2.5c1,0,1.1-0.3,1.4-1.2c0.2-0.9,0.4-2.2,0.4-2.2s0.4,0,0.9,0L7.5,26.7
		c0,0,0.2,3.5,0.4,5.4L8,32.9h3.2v1.3c0,0.5,0.4,0.9,0.9,0.9h1.5c0.5,0,0.9-0.4,0.9-0.9v-1.3c3.2,0,6.1,0,6.1,0c0,0,2.9,0,6.1,0v1.3
		c0,0.5,0.4,0.9,0.9,0.9H29c0.5,0,0.9-0.4,0.9-0.9v-1.3H33l0.1-0.8c0.2-1.9,0.4-5.4,0.4-5.4l-0.8-15.1c0.5,0,0.9,0,0.9,0
		s0.1,1.4,0.4,2.2c0.2,0.9,0.4,1.2,1.4,1.2c1,0,0.8-1.2,0.9-2.5c0.1-1.3-0.2-2.2-1.1-3.1c-0.9-0.9-1.9,0.1-2.5,0.5l-0.1-1.6
		c0-0.5-0.4-0.8-1-0.9C30.9,7.4,26.4,6.7,20.5,6.7 M20.6,29.9c-1.5,0-2.6-0.1-4.1-0.1l-1.1-1.3c0,0,3.1,0.2,5.2,0.2s5.2-0.2,5.2-0.2
		l-1.1,1.3C23.2,29.8,22,29.9,20.6,29.9z M31.9,28.3c0,0,0,0.9,0,1.3c0,0.4-0.3,0.8-0.6,0.8c-0.4,0-4.1,0-4.4,0
		c-0.4,0-0.4-0.4-0.3-0.5c0.1-0.1,1.3-1.3,1.3-1.3L31.9,28.3z M9.1,28.3c0,0,0,0.9,0,1.3c0,0.4,0.3,0.8,0.6,0.8c0.4,0,4.1,0,4.4,0
		c0.4,0,0.4-0.4,0.3-0.5c-0.1-0.1-1.3-1.3-1.3-1.3L9.1,28.3z M20.5,10.7c-5.3,0-8.8,0-9.4,0.1l0.1-2.1c1.4-0.2,4.9-0.7,9.3-0.7
		c4.4,0,7.9,0.5,9.3,0.7l0.1,2.1C29.3,10.8,25.9,10.7,20.5,10.7z M20.5,24.3c3.5,0,6.9,0.1,10.4-0.1l-0.4-8.9l-0.1-1.7
		c0-0.4-0.4-0.7-0.9-0.8c-0.6-0.1-3.6-0.2-8.9-0.2c-5.3,0-8.4,0.1-8.9,0.2c-0.6,0.1-0.9,0.4-0.9,0.8l-0.1,1.7l-0.4,8.9
		C13.6,24.4,17,24.3,20.5,24.3z"/>
</g>
</svg>
