<?xml version="1.0" encoding="utf-8"?>
<!-- Generator: Adobe Illustrator 27.7.0, SVG Export Plug-In . SVG Version: 6.00 Build 0)  -->
<svg version="1.1" xmlns="http://www.w3.org/2000/svg" xmlns:xlink="http://www.w3.org/1999/xlink" x="0px" y="0px"
	 viewBox="0 0 40 40" style="enable-background:new 0 0 40 40;" xml:space="preserve">
<style type="text/css">
	.st0{fill:#FFFFFF;}
	.st1{fill:#0057BE;}
	.st2{fill:none;stroke:#0057BE;stroke-width:0.7685;stroke-miterlimit:10;}
	.st3{fill:#0057BE;stroke:#0057BE;stroke-width:0.5;stroke-miterlimit:10;}
	.st4{fill:none;}
	.st5{fill-rule:evenodd;clip-rule:evenodd;fill:#0057BE;}
</style>
<g id="fehér_kör">
	<circle class="st0" cx="20.2" cy="20.2" r="20"/>
	<circle class="st0" cx="20.1" cy="20" r="20"/>
</g>
<g id="Réteg_2">
	<path class="st3" d="M29.8,36.2c-1.7,0-3.4-0.7-4.7-1.9c-1.8-1.8-2.4-4.4-1.6-6.7L13,17c-2.4,0.8-5,0.2-6.7-1.6c-2-2-2.5-5-1.3-7.5
		C5,7.8,5.1,7.7,5.2,7.7c0.1,0,0.2,0,0.3,0.1l4.2,4.2c0.7,0.7,1.7,0.7,2.4,0c0.7-0.7,0.7-1.7,0-2.4L7.9,5.4C7.9,5.3,7.8,5.2,7.8,5
		c0-0.1,0.1-0.2,0.2-0.3c2.5-1.2,5.5-0.7,7.5,1.3c1.8,1.8,2.4,4.4,1.6,6.7l10.6,10.6c2.4-0.8,5-0.2,6.7,1.6c2,2,2.5,5,1.3,7.5
		c-0.1,0.1-0.2,0.2-0.3,0.2c-0.1,0-0.2,0-0.3-0.1L31,28.4c-0.7-0.7-1.7-0.7-2.4,0c-0.7,0.7-0.7,1.7,0,2.4l4.2,4.2
		c0.1,0.1,0.1,0.2,0.1,0.3c0,0.1-0.1,0.2-0.2,0.3C31.8,36,30.8,36.2,29.8,36.2z M13.1,16.2c0.1,0,0.2,0,0.3,0.1l10.9,10.9
		c0.1,0.1,0.1,0.3,0.1,0.4c-0.8,2.1-0.3,4.6,1.3,6.2c1.6,1.6,4,2.1,6.2,1.4l-3.8-3.8c-1-1-1-2.5,0-3.5c1-1,2.5-1,3.5,0l3.8,3.8
		c0.8-2.1,0.3-4.5-1.4-6.2c-1.6-1.6-4-2.1-6.2-1.3c-0.1,0-0.3,0-0.4-0.1L16.5,13.2c-0.1-0.1-0.1-0.3-0.1-0.4
		c0.8-2.1,0.3-4.6-1.3-6.2C13.4,5,11,4.4,8.9,5.2L12.6,9c0.5,0.5,0.7,1.1,0.7,1.7c0,0.7-0.3,1.3-0.7,1.7c-0.9,0.9-2.5,0.9-3.5,0
		L5.4,8.7c-0.8,2.1-0.3,4.5,1.4,6.2c1.6,1.6,4,2.1,6.2,1.3C13,16.2,13,16.2,13.1,16.2z M6.7,36c-0.1,0-0.2,0-0.3-0.1l-1.8-1.8
		c-0.1-0.1-0.1-0.4,0-0.5l3-3.4c0.1-0.1,0.2-0.1,0.3-0.1c0.1,0,0.2,0,0.3,0.1L9,31l7.8-7.8l0.5,0.5l-7.8,7.8l0.8,0.8
		c0.1,0.1,0.1,0.2,0.1,0.3s0,0.2-0.1,0.3l-3.4,3C6.9,36,6.8,36,6.7,36z M5.4,33.8l1.3,1.3l2.8-2.5L8,31L5.4,33.8z M25.9,18.6
		l-0.5-0.5l9.7-9.7c0.4-0.4,0.6-0.9,0.6-1.5s-0.2-1.1-0.6-1.5c-0.8-0.8-2.2-0.8-3,0l-9.7,9.7l-0.5-0.5L31.6,5c1.1-1.1,3-1.1,4,0
		c0.5,0.5,0.8,1.3,0.8,2s-0.3,1.5-0.8,2L25.9,18.6z M24.2,16.9l-0.5-0.5l9.6-9.6l0.5,0.5L24.2,16.9z"/>
	<path class="st4" d="M4.2,4.1h32v32h-32V4.1z"/>
</g>
</svg>
