<?xml version="1.0" encoding="utf-8"?>
<!-- Generator: Adobe Illustrator 27.7.0, SVG Export Plug-In . SVG Version: 6.00 Build 0)  -->
<svg version="1.1" xmlns="http://www.w3.org/2000/svg" xmlns:xlink="http://www.w3.org/1999/xlink" x="0px" y="0px"
	 viewBox="0 0 40 40" style="enable-background:new 0 0 40 40;" xml:space="preserve">
<style type="text/css">
	.st0{fill:#FFFFFF;}
	.st1{fill:#0057BE;}
	.st2{fill:none;stroke:#0057BE;stroke-width:0.7685;stroke-miterlimit:10;}
	.st3{fill:#0057BE;stroke:#0057BE;stroke-width:0.3872;stroke-miterlimit:10;}
	.st4{fill:none;}
	.st5{fill-rule:evenodd;clip-rule:evenodd;fill:#0057BE;}
</style>
<g id="fehér_kör">
	<circle class="st0" cx="20.3" cy="20.1" r="20"/>
	<circle class="st0" cx="20.3" cy="20.1" r="20"/>
</g>
<g id="Réteg_2">
	<path class="st4" d="M4.3,4.1h32v32h-32V4.1z"/>
	<g>
		<path class="st1" d="M33.4,20.4v2H9.7V11.5h9.8v-2H8.8c-0.5,0-1,0.4-1,1v11.8h-2V8.6c0-0.5,0.4-1,1-1h14.8v-2H6.8
			c-1.6,0-3,1.3-3,3v19.7c0,0.5,0.4,1,1,1h8.7l-0.7,4.9h-1.1c-0.5,0-1,0.4-1,1h-2v2h21.7v-2h-2c0-0.5-0.4-1-1-1h-1.1l-0.7-4.9h8.7
			c0.5,0,1-0.4,1-1v-7.9H33.4z M14.8,34.2l0.7-4.9h8.1l0.7,4.9H14.8z M33.4,27.3H5.8v-3h27.6V27.3z"/>
		<path class="st1" d="M25.1,14.5l-1.3,1.3l1.4,1.4l1.3-1.2c0.3,0.2,0.6,0.3,1,0.4v2.1h2v-2.1c0.3-0.1,0.7-0.2,1-0.4l1.3,1.3
			l1.4-1.4l-1.2-1.3c0.2-0.3,0.3-0.6,0.4-1h2.1v-2h-2.1c-0.1-0.3-0.2-0.7-0.4-1l1.3-1.3l-1.4-1.4l-1.3,1.3c-0.3-0.2-0.6-0.3-1-0.4
			V6.6h-2v2.1c-0.3,0.1-0.7,0.2-1,0.4l-1.3-1.3l-1.4,1.4l1.3,1.3c-0.2,0.3-0.3,0.6-0.4,1h-2.1v2h2.1C24.7,13.9,24.9,14.2,25.1,14.5z
			 M28.4,10.6c1.1,0,2,0.9,2,2s-0.9,2-2,2s-2-0.9-2-2S27.4,10.6,28.4,10.6z"/>
	</g>
</g>
</svg>
