<svg width="38" height="38" viewBox="0 0 38 38" fill="none" xmlns="http://www.w3.org/2000/svg">
<path d="M36.6281 23.7234C35.4944 27.9546 32.8767 31.6368 29.2529 34.0977C25.6292 36.5586 21.2412 37.634 16.8901 37.1276C12.5391 36.6212 8.51541 34.5667 5.55371 31.3394C2.592 28.112 0.889918 23.927 0.758247 19.5486C0.626576 15.1702 2.07411 10.8905 4.83652 7.49095C7.59893 4.09142 11.4919 1.79887 15.8046 1.03191C20.1174 0.264959 24.5621 1.07477 28.3272 3.31348C32.0922 5.5522 34.9265 9.07044 36.3125 13.2258" stroke="#0057BE" stroke-width="1.5" stroke-linecap="round"/>
<path d="M6 17H17.9462C18.4274 17 18.8925 17.1735 19.2561 17.4886V17.4886C20.1763 18.2861 20.1763 19.7139 19.2561 20.5114V20.5114C18.8925 20.8265 18.4274 21 17.9462 21H8.30769" stroke="#0057BE" stroke-width="1.71429" stroke-linecap="round" stroke-linejoin="round"/>
<path d="M32 17H29.3H26M29.6 21H26" stroke="#0057BE" stroke-width="1.71429" stroke-linecap="round" stroke-linejoin="round"/>
<path d="M12.2856 16.5605C12.8593 14.9818 13.9711 13.6557 15.4255 12.8153C16.88 11.9749 18.5841 11.674 20.2384 11.9655C21.8927 12.2569 23.3913 13.1221 24.471 14.4089C25.5507 15.6958 26.1423 17.322 26.1419 19.0017C26.1415 20.6815 25.5491 22.3074 24.4688 23.5937C23.3885 24.88 21.8894 25.7445 20.235 26.0351C18.5805 26.3258 16.8766 26.024 15.4225 25.183C13.9685 24.3419 12.8574 23.0153 12.2845 21.4362" stroke="#0057BE" stroke-width="1.71429"/>
</svg>
