<svg width="36" height="45" viewBox="0 0 36 45" fill="none" xmlns="http://www.w3.org/2000/svg">
<path d="M22 31.4V44M22 31.4H14M22 31.4V17.4C22 16.6268 21.3732 16 20.6 16H15.4C14.6268 16 14 16.6268 14 17.4V31.4M14 31.4V44" stroke="#0057BE" stroke-width="1.5" stroke-linecap="round" stroke-linejoin="round"/>
<path d="M8 18H3.4C2.6268 18 2 18.6268 2 19.4V30M2 30H8V40M2 30V40" stroke="#0057BE" stroke-width="1.5" stroke-linecap="round" stroke-linejoin="round"/>
<path d="M28 18H32.6C33.3732 18 34 18.6268 34 19.4V30M34 30H28V40M34 30V40" stroke="#0057BE" stroke-width="1.5" stroke-linecap="round" stroke-linejoin="round"/>
<path d="M12.75 6C12.75 8.8995 15.1005 11.25 18 11.25C20.8995 11.25 23.25 8.8995 23.25 6C23.25 3.10051 20.8995 0.75 18 0.75C15.1005 0.75 12.75 3.1005 12.75 6Z" stroke="#0057BE" stroke-width="1.5"/>
<path d="M9.25 9C9.25 11.3472 7.34721 13.25 5 13.25C2.65279 13.25 0.75 11.3472 0.75 9C0.75 6.65279 2.65279 4.75 5 4.75C7.34721 4.75 9.25 6.65279 9.25 9Z" stroke="#0057BE" stroke-width="1.5"/>
<path d="M26.75 9C26.75 11.3472 28.6528 13.25 31 13.25C33.3472 13.25 35.25 11.3472 35.25 9C35.25 6.65279 33.3472 4.75 31 4.75C28.6528 4.75 26.75 6.65279 26.75 9Z" stroke="#0057BE" stroke-width="1.5"/>
</svg>
