<?xml version="1.0" encoding="utf-8"?>
<!-- Generator: Adobe Illustrator 27.7.0, SVG Export Plug-In . SVG Version: 6.00 Build 0)  -->
<svg version="1.1" id="Réteg_1" xmlns="http://www.w3.org/2000/svg" xmlns:xlink="http://www.w3.org/1999/xlink" x="0px" y="0px"
	 viewBox="0 0 40 40" style="enable-background:new 0 0 40 40;" xml:space="preserve">
<style type="text/css">
	.st0{fill:#FFFFFF;}
	.st1{fill:none;stroke:#0057BE;stroke-width:1.0813;stroke-linecap:round;stroke-linejoin:round;stroke-miterlimit:10;}
	.st2{fill:none;stroke:#0057BE;stroke-linecap:round;stroke-miterlimit:10;}
	.st3{fill:none;stroke:#0057BE;stroke-width:1.4033;stroke-linecap:round;}
	.st4{fill:none;stroke:#0057BE;stroke-width:1.096;stroke-linecap:round;stroke-miterlimit:10;}
	.st5{fill:none;stroke:#0057BE;stroke-width:0.8528;stroke-linecap:round;stroke-miterlimit:10;}
	.st6{fill:none;stroke:#0057BE;stroke-width:0.8971;stroke-linecap:round;stroke-miterlimit:10;}
	.st7{fill:none;stroke:#0057BE;stroke-width:1.3606;stroke-linecap:round;stroke-miterlimit:10;}
	.st8{fill:none;stroke:#0057BE;stroke-width:1.4141;stroke-linecap:round;stroke-miterlimit:10;}
</style>
<g>
	<path class="st7" d="M22.5,25h-5.3c-0.1,0-0.2-0.1-0.2-0.2v-4.9c0-0.1,0.1-0.2,0.2-0.2h5.3c0.1,0,0.2,0.1,0.2,0.2v4.9
		C22.6,24.9,22.6,25,22.5,25z"/>
	<path class="st7" d="M38.4,22.1v11.1c0,1.4-1.2,2.6-2.6,2.6H4.5c-1.4,0-2.6-1.2-2.6-2.6V22.1"/>
	<path class="st8" d="M16.8,22.6c-3.3-0.9-8.2-1.9-13.1-3.1c-0.1,0-1.5-0.4-2.1-1c-0.4-0.4-0.6-0.8-0.6-1.4v-5.6
		c0-1.1,0.9-1.9,1.9-1.9h34.3c1.1,0,1.9,0.9,1.9,1.9v5.6c0,1.1-0.9,1.7-1.9,1.9c-5.2,1.2-10.9,2.7-14.3,3.6"/>
	<path class="st8" d="M13.3,7.1V6.4c0-1,0.8-1.8,1.8-1.8h9.7c1,0,1.8,0.8,1.8,1.8v0.6"/>
</g>
</svg>
